<?xml version="1.0" encoding="UTF-8" standalone="no"?>
<svg
   xmlns:dc="http://purl.org/dc/elements/1.1/"
   xmlns:cc="http://creativecommons.org/ns#"
   xmlns:rdf="http://www.w3.org/1999/02/22-rdf-syntax-ns#"
   xmlns:svg="http://www.w3.org/2000/svg"
   xmlns="http://www.w3.org/2000/svg"
   viewBox="0 0 128 128"
   height="128"
   width="128"
   version="1.1"
   id="svg3532">
  <metadata
     id="metadata3538">
    <rdf:RDF>
      <cc:Work
         rdf:about="">
        <dc:format>image/svg+xml</dc:format>
        <dc:type
           rdf:resource="http://purl.org/dc/dcmitype/StillImage" />
        <dc:title></dc:title>
      </cc:Work>
    </rdf:RDF>
  </metadata>
  <defs
     id="defs3536" />
  <path
     id="path3746"
     d="m 39.389768,76.783333 c -4.18589,-1.486229 -7.100145,-4.08949 -9.676937,-8.64425 -3.402928,-6.01505 -4.183352,-14.260413 -2.02939,-21.441008 0.695339,-2.318024 3.133286,-6.365468 5.140478,-8.534136 2.821878,-3.048899 6.950463,-5.021369 10.510243,-5.021369 6.236918,0 12.529426,5.188166 15.244125,12.568761 1.963638,5.338661 2.191378,11.479577 0.634873,17.118566 -1.78017,6.449255 -5.821037,11.496045 -10.891192,13.602405 -2.236718,0.929232 -6.798777,1.108518 -8.9322,0.351031 z m 9.651005,-18.81375 0,-1.444959 -5.677061,0 -5.677061,0 0,1.269814 c 0,0.698395 0.06813,1.348626 0.151391,1.444956 0.08326,0.09633 2.637941,0.175152 5.67706,0.175152 l 5.525673,0 0,-1.444957 z m 0,-5.779834 0,-1.444958 -5.677061,0 -5.677061,0 0,1.269812 c 0,0.698396 0.06813,1.348627 0.151391,1.444959 0.08326,0.09632 2.637941,0.175153 5.67706,0.175153 l 5.525673,0 0,-1.444958 z"
     style="fill:#008080" />
  <path
     id="path3748"
     d=""
     style="fill:#008080" />
  <path
     id="path3750"
     d=""
     style="fill:#008080" />
  <path
     id="path3752"
     d="m 40.369061,32.700383 c 0.163924,-0.07587 0.359786,-0.06656 0.435242,0.02086 0.07545,0.08731 -0.05866,0.149397 -0.298045,0.137996 -0.26454,-0.01272 -0.318347,-0.07485 -0.137194,-0.15871 z"
     style="fill:#008080" />
  <path
     id="path3754"
     d=""
     style="fill:#008080" />
  <path
     id="path3756"
     d=""
     style="fill:#008080" />
  <path
     id="path3758"
     d="M 40.700312,75.685273 C 34.903878,74.901082 29.279277,68.915689 27.247367,61.369388 25.68836,55.5794 25.955189,48.587954 27.905426,44.126975 30.553834,38.068993 35.161489,33.571109 39.92422,32.394516 c 2.245935,-0.554838 2.86977,-0.594983 4.711728,-0.303204 4.878214,0.772739 9.708965,4.62478 12.400836,9.888423 3.873418,7.574029 3.534316,18.082129 -0.821944,25.470446 -1.877134,3.183662 -5.291845,6.329437 -8.117997,7.478634 -1.038827,0.422419 -4.886294,1.092726 -5.674719,0.988656 -0.124882,-0.0164 -0.899712,-0.120979 -1.721812,-0.232205 z m 7.966584,-19.038623 0,-1.444958 -5.677063,0 -5.677062,0 0,1.444958 0,1.444958 5.677062,0 5.677063,0 0,-1.444958 z m 0,-5.779837 0,-1.444956 -5.677063,0 -5.677062,0 0,1.444956 0,1.444962 5.677062,0 5.677063,0 0,-1.444962 z"
     style="fill:#008080" />
  <path
     id="path3768"
     d="m 43.999997,121.53588 c 3.541665,-4.64561 4.576872,-6.73257 5.13457,-10.35115 l 0.357013,-2.31634 9.955146,-0.0757 9.955129,-0.0759 0.58768,3.26079 c 0.726877,4.03315 1.494497,5.95726 2.815628,7.05766 0.55192,0.4597 1.297497,1.13999 1.656852,1.51173 0.57162,0.59138 0.605106,0.7286 0.267679,1.09701 -0.650783,0.71055 -5.678869,0.96804 -19.001502,0.97303 l -12.555962,0.005 0.827767,-1.08578 z"
     style="fill:#808080" />
  <path
     id="path3770"
     d="m 18.757946,106.38348 c -1.896096,-0.12446 -3.757364,-0.31595 -4.136124,-0.42558 l -0.688683,-0.19934 -0.173114,-4.3689 c -0.09531,-2.402901 -0.173114,-9.038783 -0.173114,-14.746405 l 0,-10.377499 1.72373,0 1.723755,0 0,7.238562 0,7.238566 43.623739,0 43.623725,0 0,-36.627135 0,-36.627137 -21.347777,0 -21.347803,0 0,-2.317947 0,-2.317948 22.872647,0.07399 22.872623,0.07399 0.19427,8.975818 c 0.26914,12.428906 -0.031,81.984652 -0.35858,83.144082 -0.23654,0.83679 -0.37487,0.92853 -1.6382,1.08634 -2.14034,0.26737 -82.884202,0.43166 -86.771002,0.17655 z"
     style="fill:#808080" />
  <path
     id="path3772"
     d="m 30.213855,23.172448 c 0.02411,-10.424832 0.07236,-17.952268 0.117478,-18.3260426 0.04208,-0.3488749 0.118832,-0.6832628 0.170521,-0.7430829 0.12653,-0.1464407 20.915147,-0.2150421 22.437081,-0.074041 1.251755,0.1159597 1.682098,0.319632 2.283278,1.0806549 0.449628,0.5691742 0.695135,1.0979391 0.821249,1.7688618 0.113628,0.6044345 0.221182,12.008608 0.229035,24.284761 l 0.0054,9.520756 -0.453344,-0.603755 c -1.635915,-2.178642 -3.456232,-3.804366 -5.727929,-5.115595 -2.365084,-1.365122 -3.989192,-1.792578 -6.784153,-1.785548 -2.344005,0.0061 -3.598765,0.26612 -5.492846,1.139142 -2.420618,1.115715 -3.862789,2.254587 -6.17537,4.876636 l -1.472001,1.668983 0.04094,-17.691725 z m 17.052026,3.124026 c 0.218658,-0.276785 0.458661,-0.652242 0.533358,-0.834352 0.129755,-0.316424 0.128639,-0.347237 -0.02453,-0.694795 -0.181896,-0.412495 -0.786924,-1.303862 -1.805087,-2.659327 -0.886536,-1.18025 -0.907655,-1.028234 0.39997,-2.880228 0.360701,-0.510869 0.85866,-1.256215 1.106578,-1.656321 0.430039,-0.694017 0.445632,-0.738863 0.339061,-0.975297 -0.180075,-0.399542 -1.263876,-1.791597 -1.371438,-1.761523 -0.05415,0.01515 -0.758137,0.853045 -1.564408,1.862015 -0.806266,1.008965 -1.494981,1.834486 -1.530473,1.834486 -0.03549,0 -0.74161,-0.83597 -1.569143,-1.85771 -0.827534,-1.021741 -1.533272,-1.857708 -1.568309,-1.857708 -0.08808,0 -1.275611,1.578848 -1.374283,1.827135 -0.09895,0.248987 -0.08655,0.270107 1.481352,2.526564 l 1.185751,1.706462 -0.127233,0.249181 c -0.06998,0.137051 -0.488477,0.74849 -0.930002,1.358754 -1.052592,1.454877 -1.670023,2.397271 -1.670023,2.548991 0,0.16944 0.546642,0.969698 1.066759,1.561707 l 0.433316,0.493211 1.508877,-1.886494 c 0.829879,-1.037572 1.531059,-1.896257 1.558178,-1.908189 0.02712,-0.01191 0.734534,0.851788 1.572037,1.919383 l 1.522738,1.941079 0.214722,-0.17689 c 0.118034,-0.09729 0.393605,-0.403348 0.612255,-0.680136 z"
     style="fill:#ff6600" />
  <path
     id="path3774"
     d=""
     style="fill:#ff6600" />
  <path
     id="path3776"
     d=""
     style="fill:#ff6600" />
  <path
     id="path3778"
     d=""
     style="fill:#ff6600" />
  <path
     id="path3780"
     d=""
     style="fill:#ff6600" />
  <path
     id="path3782"
     d=""
     style="fill:#ff6600" />
  <path
     id="path3784"
     d="m 4.4009055,22.354163 0,-15.4971392 L 4.8917917,6.043621 C 5.1617803,5.5962513 5.4893409,5.1283638 5.6197023,5.0038744 6.3762927,4.2813589 8.2228674,4.1770821 21.995192,4.0791361 l 8.722707,-0.062022 -0.07603,0.4022064 c -0.09977,0.5278079 -0.215085,13.2172125 -0.2225,24.4797825 l -0.006,8.952213 -13.006294,0 -13.0062976,0 0,-15.497142 z M 22.13662,21.816449 c 0.415401,-0.05186 0.801815,-0.138119 0.858703,-0.191695 0.198774,-0.187222 0.30522,-1.02733 0.20321,-1.603755 -0.136422,-0.771017 -0.219704,-0.832331 -1.298406,-0.956095 -1.362429,-0.156327 -7.88248,-0.152875 -9.158898,0.0046 l -1.012962,0.125154 -0.05025,0.603771 c -0.107005,1.285417 -0.02024,1.864985 0.296529,1.981467 0.398996,0.146715 2.235845,0.200214 5.713649,0.166435 2.03123,-0.01962 4.033019,-0.07831 4.448419,-0.130174 z"
     style="fill:#ff6600" />
  <path
     id="path3786"
     d="M 10.706437,72.066763 C 6.4024759,71.988132 6.1873517,71.944794 5.4816041,71.014411 4.9774954,70.349846 4.7604548,69.885095 4.6523001,69.238616 4.5217754,68.45831 4.4264768,59.558667 4.4200076,47.541652 l -0.00545,-9.900511 2.6481134,-0.06152 c 1.4564608,-0.03385 7.2799217,-0.08931 12.9410207,-0.123215 l 10.292908,-0.0617 0.02161,-3.769744 0.02161,-3.769745 0.02687,4.690715 c 0.01478,2.579896 0.05021,4.916534 0.07873,5.192532 l 0.05187,0.501815 0.258837,-0.254637 c 0.369954,-0.36395 0.321211,-0.225499 -0.171363,0.486695 -1.822137,2.634614 -3.490282,7.578724 -3.782587,11.210961 -0.446047,5.54267 0.20528,9.932481 2.143424,14.446356 0.674172,1.570122 1.21657,2.517364 2.539565,4.435099 0.573653,0.831531 1.043007,1.531656 1.043007,1.55583 0,0.06423 -17.758774,0.02037 -21.822044,-0.05378 z m 7.254995,-9.643001 c 0.150138,-0.216259 0.204393,-0.901694 0.281132,-3.551494 l 0.05273,-1.820884 1.481887,-0.06552 c 1.745522,-0.0772 2.443946,-0.16415 2.578455,-0.321015 0.134238,-0.156575 0.13715,-2.465234 0.0034,-2.621336 -0.147408,-0.171924 -0.753772,-0.250979 -2.47646,-0.32291 l -1.589717,-0.06636 -0.05819,-1.909342 c -0.07687,-2.522338 -0.152619,-3.450925 -0.290242,-3.557976 -0.175185,-0.136259 -1.895094,-0.05758 -1.97328,0.09029 -0.08665,0.163877 -0.153415,1.237298 -0.218248,3.509229 l -0.05331,1.86797 -1.587653,0.06629 c -1.72122,0.07189 -2.32712,0.150962 -2.474399,0.322994 -0.06347,0.07414 -0.09474,0.506874 -0.09474,1.310164 0,0.972882 0.02393,1.227374 0.126728,1.34716 0.103462,0.12059 0.487061,0.16718 2.090618,0.253914 l 1.963904,0.10623 0.002,1.490909 c 0.002,1.56427 0.105506,3.508024 0.202277,3.797596 0.09257,0.276975 0.349104,0.344162 1.14875,0.300848 0.633808,-0.03433 0.776389,-0.07088 0.884603,-0.22674 l -2e-6,0 z"
     style="fill:#ff6600" />
  <path
     id="path3503"
     d="m 64.561457,40.430664 -3.205828,-0.07046 0.02931,-4.546448 c 0.03365,-5.219755 0.142134,-6.847908 0.506412,-7.600407 0.307336,-0.634872 1.546295,-1.909677 2.064571,-2.124306 0.591753,-0.245056 0.666656,-0.08672 0.646831,1.367302 -0.01242,0.911241 -0.09515,1.544035 -0.3077,2.353768 -0.406717,1.549415 -0.465058,2.094991 -0.313439,2.931119 0.342151,1.88685 1.811702,3.252861 3.330755,3.096081 0.745685,-0.07696 1.213271,-0.311811 1.776663,-0.892348 1.278664,-1.317576 1.525855,-2.992653 0.784313,-5.314865 -0.247151,-0.773978 -0.296406,-1.154126 -0.297648,-2.297218 l -0.0015,-1.369763 9.951863,0 9.951864,0 0.06481,0.483205 c 0.09741,0.726223 -0.114184,2.440574 -0.456154,3.695829 -0.641378,2.354284 -0.05201,4.401208 1.53503,5.331274 1.526649,0.894676 3.250068,0.171632 4.199357,-1.761801 0.309092,-0.629534 0.340402,-0.800989 0.329278,-1.803152 -0.0095,-0.858146 -0.08136,-1.317424 -0.319095,-2.040073 -0.266131,-0.808975 -0.306999,-1.129934 -0.308289,-2.421165 l -0.0015,-1.488559 0.320583,0.07548 c 0.822914,0.193762 1.889918,1.213585 2.468109,2.358975 l 0.358849,0.710876 0,5.65724 0,5.657241 -8.772313,1.17e-4 c -4.824772,6.5e-5 -11.552641,0.01866 -14.95082,0.04132 -3.398178,0.02266 -7.621129,0.0095 -9.384335,-0.02926 l 0,3e-6 z"
     style="fill:#008080" />
  <path
     id="path3505"
     d="m 91.512066,79.816732 c -0.160292,-0.03238 -0.341275,-0.106888 -0.402186,-0.165576 -0.06091,-0.05869 -0.244517,-0.107949 -0.408014,-0.109471 -0.163498,-0.0015 -0.588671,-0.122653 -0.94483,-0.269179 -3.311808,-1.362509 -5.734752,-4.715734 -6.348201,-8.785572 -0.445322,-2.95443 -0.03304,-5.599814 1.286385,-8.253957 1.059732,-2.13175 2.510518,-3.645848 4.398927,-4.590893 1.378864,-0.690046 2.209001,-0.869775 3.698794,-0.800805 2.102629,0.09734 3.939304,0.945844 5.316344,2.456034 1.745883,1.914696 2.552295,3.46231 3.141585,6.029154 0.34174,1.48851 0.40332,1.97354 0.40358,3.178526 4.6e-4,2.080178 -0.45592,3.913201 -1.46729,5.893537 -1.329754,2.603755 -3.380979,4.414073 -5.630073,4.96885 -0.424488,0.104707 -0.943817,0.243789 -1.154063,0.309073 -0.465106,0.14442 -1.492976,0.22067 -1.890958,0.140279 z m -3.506692,-4.886975 c 0.197005,-0.165769 1.040888,-1.079659 1.875294,-2.030867 1.223529,-1.3948 1.612755,-1.764698 2.011409,-1.911524 0.271868,-0.10013 0.861519,-0.319323 1.310335,-0.487098 1.187673,-0.443969 1.978613,-0.595009 4.196721,-0.801415 2.310232,-0.214979 3.091447,-0.405727 3.431327,-0.837822 0.33498,-0.42585 0.31896,-1.088915 -0.0356,-1.471432 -0.33208,-0.358319 -0.55008,-0.387604 -4.032657,-0.54173 -2.103413,-0.09309 -2.524445,-0.141306 -2.642395,-0.302612 -0.184229,-0.251948 -0.251267,-0.837317 -0.399141,-3.485261 -0.137142,-2.455781 -0.231117,-2.783348 -0.875775,-3.052704 -0.343496,-0.143521 -0.455296,-0.144253 -0.788197,-0.0052 -0.71643,0.299343 -0.81379,0.705087 -1.010841,4.212628 -0.0916,1.630453 -0.163043,2.126451 -0.403006,2.797814 -0.208188,0.582465 -0.292374,1.059264 -0.294129,1.665847 -0.0031,1.070226 -0.08879,1.239291 -1.751018,3.454465 -1.47471,1.965283 -1.697178,2.356936 -1.587349,2.794527 0.100991,0.402383 0.518382,0.403366 0.994972,0.0023 l 0,-1e-6 z"
     style="fill:#d45500" />
  <path
     id="path3507"
     d="m 65.74886,27.584845 c -0.652408,-0.0738 -0.7003,-0.224848 -0.692118,-2.182892 0.0101,-2.41722 0.136554,-3.62041 0.420467,-4.000682 0.440524,-0.590034 0.766942,-0.746763 1.547499,-0.74303 1.472984,0.007 1.634635,0.410184 1.7241,4.29969 l 0.06234,2.710383 -1.327139,-0.01866 c -0.729926,-0.01026 -1.510745,-0.03943 -1.735153,-0.06481 z"
     style="fill:#999999" />
  <path
     id="path3509"
     d="m 90.374598,27.198062 -0.263151,-0.105746 0.06728,-2.364096 c 0.0863,-3.032335 0.155304,-3.388686 0.779514,-4.025298 0.431457,-0.440029 0.545506,-0.495446 1.019639,-0.495446 0.483364,0 0.584903,0.05236 1.073815,0.553734 0.34504,0.353835 0.581825,0.72207 0.655911,1.020037 0.06377,0.256466 0.151696,1.607286 0.195396,3.001821 l 0.07945,2.535519 -1.672353,-0.0074 c -0.919795,-0.0041 -1.790772,-0.05498 -1.935505,-0.113136 z"
     style="fill:#999999" />
  <path
     id="path3511"
     d="m 65.236742,53.596849 c -0.09223,-0.240353 -0.09223,-4.053876 0,-4.294228 0.06042,-0.157444 0.341584,-0.184398 1.923498,-0.184398 l 1.852737,0 0,2.331512 0,2.331511 -1.852737,0 c -1.581914,0 -1.863081,-0.02695 -1.923498,-0.184397 z"
     style="fill:#999999" />
  <path
     id="path3513"
     d="m 70.955903,53.93668 c -0.04274,-0.04274 -0.07772,-1.091924 -0.07772,-2.331511 l 0,-2.253795 1.806922,0 1.806922,0 0,2.331512 0,2.331512 -1.729205,0 c -0.951063,0 -1.764177,-0.03497 -1.806922,-0.07772 z"
     style="fill:#999999" />
  <path
     id="path3515"
     d="m 77.056693,51.682886 0,-2.331512 1.865209,0 1.86521,0 0,2.331512 0,2.331512 -1.86521,0 -1.865209,0 0,-2.331512 z"
     style="fill:#999999" />
  <path
     id="path3517"
     d="m 83.351775,51.682886 0,-2.331512 1.806921,0 1.806922,0 0,2.331512 0,2.331512 -1.806922,0 -1.806921,0 0,-2.331512 z"
     style="fill:#999999" />
  <path
     id="path3519"
     d="m 89.758526,53.82663 c -0.143818,-0.37827 -0.375101,-4.027552 -0.272244,-4.295592 0.0581,-0.151407 0.36034,-0.179664 1.921681,-0.179664 l 1.852737,0 0,2.266344 c 0,1.685059 -0.03737,2.290534 -0.14572,2.360656 -0.08015,0.05187 -0.840149,0.112557 -1.688896,0.134858 l -1.543176,0.04055 -0.124382,-0.327149 z"
     style="fill:#999999" />
  <path
     id="path3521"
     d="m 83.296831,59.149135 c -0.09183,-0.148583 0.04842,-1.745105 0.17393,-1.979871 0.06535,-0.122243 0.274112,-0.159347 0.772175,-0.137244 0.375435,0.01666 0.725077,0.07157 0.776983,0.122021 0.05191,0.05045 -0.214404,0.479423 -0.5918,0.953273 -0.808272,1.014852 -1.024747,1.214207 -1.131288,1.041821 z"
     style="fill:#999999" />
  <path
     id="path3523"
     d="m 77.13441,61.630669 c -0.04274,-0.04274 -0.07772,-1.091924 -0.07772,-2.331511 l 0,-2.253795 1.865209,0 1.86521,0 0,2.331512 0,2.331512 -1.787493,0 c -0.983121,0 -1.822465,-0.03497 -1.865209,-0.07772 z"
     style="fill:#999999" />
  <path
     id="path3525"
     d="m 70.955903,61.630669 c -0.04274,-0.04274 -0.07772,-1.091924 -0.07772,-2.331511 l 0,-2.253795 1.806922,0 1.806922,0 0,2.331512 0,2.331512 -1.729205,0 c -0.951063,0 -1.764177,-0.03497 -1.806922,-0.07772 z"
     style="fill:#999999" />
  <path
     id="path3527"
     d="m 64.660821,61.630669 c -0.04274,-0.04274 -0.07772,-1.091924 -0.07772,-2.331511 l 0,-2.253795 1.86521,0 1.865209,0 0,2.331512 0,2.331512 -1.787492,0 c -0.983121,0 -1.822465,-0.03497 -1.86521,-0.07772 z"
     style="fill:#999999" />
  <path
     id="path3529"
     d="m 64.635067,69.486218 c -0.03151,-0.08212 -0.04298,-1.144416 -0.02549,-2.360656 l 0.03181,-2.211347 1.836066,-0.0321 1.836065,-0.0321 0,2.39276 0,2.39276 -1.81058,0 c -1.364141,0 -1.824708,-0.03682 -1.867876,-0.149309 z"
     style="fill:#999999" />
  <path
     id="path3531"
     d="m 71.021316,69.539583 c -0.113501,-0.07338 -0.140861,-0.627417 -0.116575,-2.360624 l 0.03173,-2.264744 1.748634,0 1.748634,0 0,2.331512 0,2.331512 -1.632058,0.02911 c -0.897633,0.01601 -1.698798,-0.01403 -1.780368,-0.06677 z"
     style="fill:#999999" />
  <path
     id="path3533"
     d="m 78.076729,69.665304 -1.020036,-0.03886 0,-2.388297 0,-2.388297 1.773311,0.03218 1.773312,0.03218 0.266068,0.395083 c 0.229721,0.341109 0.258333,0.500364 0.209443,1.165755 -0.03114,0.423871 -0.08834,1.334609 -0.1271,2.023862 l -0.07048,1.253187 -0.892243,-0.02397 c -0.490733,-0.01318 -1.351259,-0.04146 -1.912279,-0.06283 z"
     style="fill:#999999" />
  <path
     id="path3535"
     d="m 72.510245,77.213686 c -3.55847,-0.04627 -7.080411,-0.0916 -7.826534,-0.100728 -1.324449,-0.0162 -1.369997,-0.02557 -1.922532,-0.395464 -0.835257,-0.559163 -1.606374,-1.649852 -1.961714,-2.774703 -0.281842,-0.892186 -0.431179,-2.406498 -0.174154,-1.765949 0.360597,0.898665 1.448439,2.053188 2.303417,2.44461 0.583078,0.266942 0.83821,0.298845 3.155303,0.39456 1.386512,0.05727 5.605412,0.142227 9.375334,0.188783 l 6.854402,0.08465 0.41339,0.911928 c 0.227364,0.501561 0.380835,0.944483 0.341046,0.984272 -0.111362,0.111362 -3.465635,0.120271 -10.557958,0.02804 z"
     style="fill:#999999" />
  <path
     id="path3537"
     d="m 87.198769,74.787676 c 0,-0.166835 0.639072,-1.107768 1.768987,-2.604555 1.640062,-2.172576 1.6479,-2.188025 1.701895,-3.35462 0.03035,-0.655775 0.147566,-1.300252 0.340583,-1.872625 0.250976,-0.744246 0.314765,-1.241952 0.433284,-3.380692 0.144517,-2.607882 0.206723,-2.888565 0.713815,-3.220824 0.264505,-0.173311 0.31017,-0.173311 0.574675,0 0.536942,0.351818 0.564578,0.496972 0.75719,3.976977 0.05678,1.025866 0.157402,2.006729 0.223605,2.179696 0.238184,0.622304 0.45078,0.670892 3.498497,0.799581 1.550712,0.06548 2.94548,0.166958 3.09948,0.225509 0.65468,0.248907 0.60421,1.051098 -0.0839,1.334304 -0.20878,0.08592 -1.59327,0.290029 -3.076633,0.453563 -2.116769,0.233364 -2.844112,0.358328 -3.380692,0.580835 -0.376018,0.155926 -0.972193,0.376065 -1.324834,0.489197 -1.064415,0.341481 -1.197364,0.449675 -2.84249,2.313231 -0.872471,0.988313 -1.715854,1.881811 -1.874184,1.985554 -0.312251,0.204593 -0.529228,0.243489 -0.529228,0.09487 z m 5.587225,-5.376897 c 0.328916,-0.328916 0.434335,-1.221486 0.201848,-1.709018 -0.470932,-0.987554 -1.708927,-0.387479 -1.708927,0.828343 0,0.354755 0.282037,0.942522 0.492993,1.027399 0.331,0.133177 0.802388,0.06497 1.014086,-0.146724 z"
     style="fill:#ffffff" />
  <path
     id="path3539"
     d="m 91.749319,68.943737 c -0.308977,-0.577328 -0.02971,-1.289995 0.5055,-1.289995 0.372624,0 0.539578,0.218046 0.539578,0.704701 0,0.695769 -0.758584,1.120613 -1.045078,0.585294 z"
     style="fill:#008080" />
</svg>
